# xmcd CD database file
#
# Track frame offsets:
#	150
#	27201
#	45182
#	61468
#	81687
#	98985
#	119690
#	129215
#	148241
#	166707
#
# Disc length: 2472 seconds
#
# Revision: 0
# Processed by: cddbd v1.5.2PL0 Copyright (c) Steve Scherf et al.
# Submitted via: CDex 1.51
#
DISCID=8609a60a
DTITLE=Boo Ray - Tennessee Alabama Fireworks
DYEAR=2019
DGENRE=Country
TTITLE0=A Tune You Can Whistle
TTITLE1=Don't Look Back
TTITLE2=Gone Back Down To Georgia
TTITLE3=Honky Tonk Dream
TTITLE4=20 Questions
TTITLE5=She Wrote The Song
TTITLE6=Dee Elle
TTITLE7=We Ain't Got The Good
TTITLE8=Outrun The Wind
TTITLE9=Skin and Ink
EXTD=YEAR: 2019
EXTT0=
EXTT1=
EXTT2=
EXTT3=
EXTT4=
EXTT5=
EXTT6=
EXTT7=
EXTT8=
EXTT9=
PLAYORDER=
